<?xml version="1.0" encoding="utf-8"?>
<!-- Generator: Adobe Illustrator 20.1.0, SVG Export Plug-In . SVG Version: 6.00 Build 0)  -->
<svg version="1.1" id="Capa_1" xmlns="http://www.w3.org/2000/svg" xmlns:xlink="http://www.w3.org/1999/xlink" x="0px" y="0px"
	 viewBox="0 0 280.8 91.5" style="enable-background:new 0 0 280.8 91.5;" xml:space="preserve">
<style type="text/css">
	.st0{fill:#F5821F;}
</style>
<g>
	<path class="st0" d="M68.9,20.8c-0.3,0.6-0.7,1-1.2,1.4c-0.4,0.3-0.9,0.6-1.3,0.8c-0.4,0.2-0.9,0.3-1.2,0.3
		c-0.4,0.1-0.7,0.1-0.9,0.1c-0.9,0-1.3-0.5-1.2-1.4c0.1-1,0.2-2,0.3-3.2c0.1-1.1-0.2-2.2-0.9-3.2c-0.6-1-2.2-1.4-4.7-1.4
		c-1.5,0-3,0.3-4.5,1c-1.5,0.6-3,1.4-4.3,2.4c-1.4,1-2.6,2.1-3.6,3.3c-1.1,1.2-1.9,2.4-2.6,3.5c-1.1,1.9-1.7,3.5-1.9,5.1
		c-0.2,1.5-0.1,3,0.3,4.3c0.4,1.4,1.1,2.7,2,4c0.9,1.3,2,2.7,3.1,4.1c1,1.2,1.9,2.5,2.7,3.7c0.9,1.3,1.5,2.6,1.9,4.1
		c0.4,1.4,0.5,3,0.3,4.6c-0.2,1.6-0.9,3.4-2,5.3c-1.2,2.1-2.8,3.9-4.8,5.3c-2,1.4-4.1,2.5-6.4,3.3c-2.3,0.8-4.6,1.4-7,1.7
		c-2.4,0.3-4.5,0.5-6.6,0.5c-2,0-4.1-0.2-6.1-0.5c-2.1-0.3-3.8-0.9-5.2-1.8c-1.4-0.8-2.4-1.9-2.9-3.2c-0.5-1.3-0.2-2.9,0.9-4.8
		c1-1.7,2.4-3.1,4.1-4.1c1.8-1,3.9-1.7,6.4-2.2c-0.3,0.3-0.9,0.9-1.8,1.8c-0.9,0.8-1.7,2-2.5,3.4c-0.9,1.6-1.2,2.9-0.7,3.9
		c0.5,1,1.3,1.7,2.4,2.3c1.1,0.5,2.4,0.9,3.9,1c1.5,0.1,2.7,0.2,3.7,0.2c0.6,0,1.6-0.1,2.9-0.3c1.3-0.2,2.6-0.6,3.9-1
		c1.4-0.5,2.7-1.1,3.9-1.9c1.2-0.8,2.2-1.7,2.8-2.8c0.5-0.9,0.8-1.8,0.8-2.7c0-1-0.2-1.9-0.5-2.9c-0.3-1-0.8-2-1.4-3.1
		c-0.6-1-1.3-2.1-2.1-3.1c-1.1-1.6-2.2-3.1-3.2-4.8c-1-1.6-1.8-3.3-2.4-5c-0.6-1.7-0.8-3.5-0.7-5.4c0.1-1.9,0.8-3.9,2-5.9
		c1.8-3.2,4-5.9,6.5-8.1c2.5-2.2,5-4,7.7-5.4c2.7-1.4,5.3-2.4,8-3c2.6-0.6,5-1,7.2-1c1.6,0,3.2,0.1,4.9,0.4c1.6,0.3,3,0.6,4.2,1.1
		c1.2,0.5,2,1.1,2.5,1.9c0.5,0.8,0.5,1.7-0.1,2.7c-0.5,0.8-1.2,1.6-2.2,2.3C70.1,19.1,69.4,19.9,68.9,20.8"/>
	<path class="st0" d="M259.6,17.3c-2.4,0-4.2,1.9-4.2,4.2c0,2.4,1.8,4.2,4.2,4.2c2.4,0,4.2-1.8,4.2-4.2
		C263.8,19.1,261.9,17.3,259.6,17.3"/>
	<path class="st0" d="M258,48.9l-0.5,0.6c-5.2,6-10.3,10.8-13.5,10.8c-1.6,0-2.5-1.1-0.8-4l15.5-27h-7.2l-11.3,19.6c0,0,0,0,0,0
		l-0.5,0.6c-5.2,6-10.3,10.8-13.5,10.8c-1.6,0-2.5-1.1-0.8-4l15.5-27h5.9l2.1-3.5h-6l6.8-11.8h-7.2l-6.8,11.8h-6.5l-2.1,3.5h6.6
		l-11.3,19.6c0,0,0,0,0,0l-0.5,0.6c-5.2,6-10.3,10.8-13.5,10.8c-1.6,0-2.5-1.1-0.8-4l7.2-12.6c2.5-4.4,1.3-6.9-1-9.8l-4-4.9
		c-1-1.3-1-2.8,0.4-4.2l-3.8-4.1c-4.1,3.7-4.4,7.8-1.9,11.1l0.6,0.8c-3.2,4.5-7.5,10.6-12.2,16.2c0,0,0,0,0,0c0,0,0,0,0,0l-0.5,0.6
		c-5.2,6-11.9,10.8-16.9,10.8c-4.4,0-7.1-2.8-3.8-8.6l0.7-1.2c4.7,1.9,13.4,1,18.8-8.3l1-1.8c3.9-6.7,0.1-11.7-5.8-11.7
		c-5.8,0-10.5,3.1-13.5,8.3l-7,12l-0.5,0.5c-4,4.7-8.8,8.6-13.2,10.1c1.2-1.9,2.1-3.9,3-5.4l8-13.7c6.7-11.5-4.2-15.3-11.5-8.7
		l1.5-2.5h-7.2l-11.3,19.6c0,0,0,0,0,0l-0.5,0.6c-5.2,6-10.3,10.8-13.5,10.8c-1.6,0-2.5-1.1-0.8-4l10.4-18.3
		c3.1-5.5,0.1-9.4-3.9-9.4c-3.9,0-8.1,2.6-12.9,8.8c2.5-5.1-0.4-8.8-4.2-8.8c-3.7,0-7.8,2.4-12.4,8.2l4.3-7.5h-7.2L82.5,48.9
		c0,0,0,0,0,0L82,49.5c-5.2,6-11.9,10.8-16.9,10.8c-4.4,0-7.1-2.8-3.8-8.6l0.7-1.2c4.6,1.9,13.4,1,18.8-8.3l1-1.8
		c3.9-6.7,0.1-11.7-5.8-11.7c-5.8,0-10.5,3.1-13.5,8.3L55,50c-4.5,7.7-0.6,14.8,7.9,14.8c4.6,0,9.1-2,13.3-5l-2.5,4.3H81l8.4-14.6
		c13.4-18.7,19.7-17.2,16.3-11.3L90.8,64.1h7.4l8.1-14.2c13.6-19.2,20.1-17.7,16.6-11.7l-9.4,16.3c-3.1,5.3-0.9,10.3,4.9,10.3
		c3,0,6.2-1.6,9.4-4l-10.7,18.6h7.3L146,41.8c8.1-11,13.1-6.9,11.2-3.7L146.3,57c-1.2,2.1-3.9,2.7-5.2,0l-4.1,1.9
		c0,0,1.3,5.8,7.9,5.8h0.4c7.6-0.2,13.3-3.5,18.1-7.9c0.3,4.6,4,7.9,9.8,7.9c8.2,0,16.3-6.4,22.3-13.3c0,0,0,0,0,0c0,0,0,0,0,0
		c3.5-4,6.2-7.6,11.9-15.5l1,1.2c0.9,1.2,1.2,2.6,0.4,4.1l-7.6,13.3c-3.1,5.3-0.9,10.3,4.9,10.3c3.7,0,7.6-2.4,11.6-5.8
		c-0.1,3.4,2.2,5.8,6.3,5.8c3.7,0,7.6-2.4,11.6-5.8c-0.1,3.4,2.2,5.8,6.3,5.8c6,0,12.8-6.4,18.8-13.3C260.2,50.5,259,49.3,258,48.9
		 M179.1,38.8c4.2-7.2,11.5-6,7.2,1.5l-1,1.8c-3.5,5.9-8.1,5.8-10.8,4.8L179.1,38.8z M68.7,38.8c4.2-7.2,11.5-6,7.2,1.5l-1,1.8
		c-3.5,5.9-8.1,5.8-10.8,4.8L68.7,38.8z"/>
</g>
</svg>
